{
	"asset":{
		"generator":"Khronos glTF Blender I/O v3.5.30",
		"version":"2.0"
	},
	"scene":0,
	"scenes":[
		{
			"name":"Scene",
			"nodes":[
				0
			]
		}
	],
	"nodes":[
		{
			"mesh":0,
			"name":"C",
			"rotation":[
				0.6480118632316589,
				0.28258341550827026,
				-0.27974453568458557,
				0.649592399597168
			],
			"translation":[
				0.3883998394012451,
				0.31085294485092163,
				-0.4204900562763214
			]
		}
	],
	"materials":[
		{
			"doubleSided":true,
			"name":"M",
			"pbrMetallicRoughness":{
				"baseColorFactor":[
					0.800000011920929,
					0.800000011920929,
					0.800000011920929,
					1
				],
				"metallicFactor":0,
				"roughnessFactor":0.5
			}
		},
		{
			"doubleSided":true,
			"name":"M.001",
			"pbrMetallicRoughness":{
				"baseColorFactor":[
					0.800000011920929,
					0.800000011920929,
					0.800000011920929,
					1
				],
				"metallicFactor":0,
				"roughnessFactor":0.5
			}
		},
		{
			"doubleSided":true,
			"name":"M.002",
			"pbrMetallicRoughness":{
				"baseColorFactor":[
					0.800000011920929,
					0.800000011920929,
					0.800000011920929,
					1
				],
				"metallicFactor":0,
				"roughnessFactor":0.5
			}
		}
	],
	"meshes":[
		{
			"name":"C",
			"primitives":[
				{
					"attributes":{
						"POSITION":0,
						"TEXCOORD_0":1,
						"NORMAL":2
					},
					"indices":3,
					"material":0
				},
				{
					"attributes":{
						"POSITION":4,
						"TEXCOORD_0":5,
						"NORMAL":6
					},
					"indices":7,
					"material":1
				},
				{
					"attributes":{
						"POSITION":8,
						"TEXCOORD_0":9,
						"NORMAL":10
					},
					"indices":11,
					"material":2
				}
			]
		}
	],
	"accessors":[
		{
			"bufferView":0,
			"componentType":5126,
			"count":1902,
			"max":[
				0.9454360008239746,
				0.9454370141029358,
				-1.1638599634170532
			],
			"min":[
				-0.9454360008239746,
				-0.9454360008239746,
				-1.2131099700927734
			],
			"type":"VEC3"
		},
		{
			"bufferView":1,
			"componentType":5126,
			"count":1902,
			"type":"VEC2"
		},
		{
			"bufferView":2,
			"componentType":5126,
			"count":1902,
			"type":"VEC3"
		},
		{
			"bufferView":3,
			"componentType":5123,
			"count":1920,
			"type":"SCALAR"
		},
		{
			"bufferView":4,
			"componentType":5126,
			"count":10990,
			"max":[
				1.4858099222183228,
				0.9960039854049683,
				0.14873500168323517
			],
			"min":[
				-1.0003999471664429,
				-0.9955899715423584,
				-1.353179931640625
			],
			"type":"VEC3"
		},
		{
			"bufferView":5,
			"componentType":5126,
			"count":10990,
			"type":"VEC2"
		},
		{
			"bufferView":6,
			"componentType":5126,
			"count":10990,
			"type":"VEC3"
		},
		{
			"bufferView":7,
			"componentType":5123,
			"count":57177,
			"type":"SCALAR"
		},
		{
			"bufferView":8,
			"componentType":5126,
			"count":6393,
			"max":[
				1.7330299615859985,
				1.7330299615859985,
				0.2931419909000397
			],
			"min":[
				-1.7330299615859985,
				-1.7330299615859985,
				-0.05486999824643135
			],
			"type":"VEC3"
		},
		{
			"bufferView":9,
			"componentType":5126,
			"count":6393,
			"type":"VEC2"
		},
		{
			"bufferView":10,
			"componentType":5126,
			"count":6393,
			"type":"VEC3"
		},
		{
			"bufferView":11,
			"componentType":5123,
			"count":35328,
			"type":"SCALAR"
		}
	],
	"bufferViews":[
		{
			"buffer":0,
			"byteLength":22824,
			"byteOffset":0,
			"target":34962
		},
		{
			"buffer":0,
			"byteLength":15216,
			"byteOffset":22824,
			"target":34962
		},
		{
			"buffer":0,
			"byteLength":22824,
			"byteOffset":38040,
			"target":34962
		},
		{
			"buffer":0,
			"byteLength":3840,
			"byteOffset":60864,
			"target":34963
		},
		{
			"buffer":0,
			"byteLength":131880,
			"byteOffset":64704,
			"target":34962
		},
		{
			"buffer":0,
			"byteLength":87920,
			"byteOffset":196584,
			"target":34962
		},
		{
			"buffer":0,
			"byteLength":131880,
			"byteOffset":284504,
			"target":34962
		},
		{
			"buffer":0,
			"byteLength":114354,
			"byteOffset":416384,
			"target":34963
		},
		{
			"buffer":0,
			"byteLength":76716,
			"byteOffset":530740,
			"target":34962
		},
		{
			"buffer":0,
			"byteLength":51144,
			"byteOffset":607456,
			"target":34962
		},
		{
			"buffer":0,
			"byteLength":76716,
			"byteOffset":658600,
			"target":34962
		},
		{
			"buffer":0,
			"byteLength":70656,
			"byteOffset":735316,
			"target":34963
		}
	],
	"buffers":[
		{
			"byteLength":805972,
			"uri":"data:application/octet-stream;base64,"
		}
	]
}
